<svg viewBox="0 0 412 64" xmlns="http://www.w3.org/2000/svg" role="img" aria-label="Cleaning With Purpose">
  <path d="M15.5 54.5 L48.5 54.5 Q54.5 54.5 54.5 48.5 L54.5 27 Q54.5 24 52.08 22.23 L34.42 9.27 Q32 7.5 29.58 9.27 L11.92 22.23 Q9.5 24 9.5 27 L9.5 48.5 Q9.5 54.5 15.5 54.5 Z" fill="none" stroke="#1F3D5C" stroke-width="5" stroke-linecap="round" stroke-linejoin="round"/>
  <path d="M32 50.06 C27.27 46.01 18.5 39.93 18.5 31.5 C18.5 27.05 22.13 23.4 26.6 23.4 C28.96 23.4 30.98 24.62 32 26.51 C33.02 24.62 35.04 23.4 37.4 23.4 C41.87 23.4 45.5 27.05 45.5 31.5 C45.5 39.93 36.73 46.01 32 50.06 Z" fill="#B88A44"/>
  <text x="79" y="41" font-family="Fraunces, Georgia, serif" font-weight="600" font-size="26" fill="#18212B">Cleaning With Purpose</text>
</svg>